<svg xmlns="http://www.w3.org/2000/svg" viewBox="0 0 32 32"><path fill="currentColor" d="M28 26H4a2 2 0 0 1-2-2v-2.09a2 2 0 0 1 1.68-2 4 4 0 0 0 0-7.88 2 2 0 0 1-1.68-2V8a2 2 0 0 1 2-2h24a2 2 0 0 1 2 2v2.09a2 2 0 0 1-1.68 2 4 4 0 0 0 0 7.88 2 2 0 0 1 1.68 2V24a2 2 0 0 1-2 2ZM4 8v2.09a6 6 0 0 1 0 11.82V24h24v-2.09a6 6 0 0 1 0-11.82V8Z"/><path d="M11 26a1 1 0 0 1-1-1v-2.12a1 1 0 1 1 2 0V25a1 1 0 0 1-1 1zm0-10.87a1 1 0 0 1-1-1v-1.32a1 1 0 1 1 2 0v1.31a1 1 0 0 1-1 1.01zm0 5a1 1 0 0 1-1-1v-1.32a1 1 0 1 1 2 0v1.31a1 1 0 0 1-1 1.01zm0-10a1 1 0 0 1-1-1V7a1 1 0 1 1 2 0v2.13a1 1 0 0 1-1 1zM18 20a1 1 0 0 1-.74-.33L14.78 17a3 3 0 0 1 0-4.07 2.7 2.7 0 0 1 3.22-.62 2.7 2.7 0 0 1 3.22.58 3 3 0 0 1 0 4.07l-2.48 2.72A1 1 0 0 1 18 20zm-1.24-6a.69.69 0 0 0-.5.24 1 1 0 0 0 0 1.37L18 17.52l1.75-1.91a1 1 0 0 0 0-1.37.67.67 0 0 0-1 0 1 1 0 0 1-1.48 0 .69.69 0 0 0-.51-.24z"/></svg>