<svg xmlns="http://www.w3.org/2000/svg" viewBox="0 0 64 64"><g data-name="ticket-travel-holidays"><path fill="#ff5023" d="M55.1,17.8,51.29,9.65,41.32,14.3,16.22,26h9.47l13.7-6.39L42.37,26H53.81a5,5,0,0,1,1.29-8.2Z"/><polygon fill="#c6c5ca" points="39.39 19.61 42.37 26 25.69 26 39.39 19.61"/><path fill="#fbb040" d="M56,40a5,5,0,0,0,5,5v9H9V45A5,5,0,0,0,9,35V26H61v9A5,5,0,0,0,56,40Z"/><rect width="22" height="20" x="24" y="30" fill="#c0ab91"/><path fill="#ff5023" d="M14,40a4.978,4.978,0,0,1-.45,2.08,4.988,4.988,0,0,0-6.58-2.3l-3.8-8.16L9,28.91V35A5,5,0,0,1,14,40Z"/><rect width="2" height="4" x="19" y="28" fill="#231f20"/><rect width="2" height="4" x="19" y="33" fill="#231f20"/><rect width="2" height="4" x="19" y="38" fill="#231f20"/><rect width="2" height="4" x="19" y="43" fill="#231f20"/><rect width="2" height="4" x="19" y="48" fill="#231f20"/><rect width="2" height="4" x="49" y="28" fill="#231f20"/><rect width="2" height="4" x="49" y="33" fill="#231f20"/><rect width="2" height="4" x="49" y="38" fill="#231f20"/><rect width="2" height="4" x="49" y="43" fill="#231f20"/><rect width="2" height="4" x="49" y="48" fill="#231f20"/><path fill="#231f20" d="M61,36a1,1,0,0,0,1-1V26a1,1,0,0,0-1-1H54.254a3.945,3.945,0,0,1,1.27-6.294,1,1,0,0,0,.482-1.33L52.2,9.227a1,1,0,0,0-1.328-.483L16,25H9a1,1,0,0,0-1,1v2.272L2.749,30.713a1,1,0,0,0-.486,1.329l3.8,8.16a1,1,0,0,0,1.331.484A4,4,0,0,1,12.388,42.1,3.988,3.988,0,0,1,9,44a1,1,0,0,0-1,1v9a1,1,0,0,0,1,1H61a1,1,0,0,0,1-1V45a1,1,0,0,0-1-1,4,4,0,0,1,0-8ZM50.807,10.979l3,6.414a6.012,6.012,0,0,0-2.032,7.48c.021.045.053.083.075.127H43.007L40.3,19.187a1,1,0,0,0-1.329-.483L25.468,25H20.731ZM40.8,25H30.2l8.707-4.061ZM7.49,38.527,4.5,32.1,8,30.478V35a1,1,0,0,0,1,1,3.994,3.994,0,0,1,3.978,3.781A6.042,6.042,0,0,0,7.49,38.527ZM60,45.917V53H10V45.917a6,6,0,0,0,0-11.834V27H60v7.083a6,6,0,0,0,0,11.834Z"/><path fill="#231f20" d="M46,29H24a1,1,0,0,0-1,1V50a1,1,0,0,0,1,1H46a1,1,0,0,0,1-1V30A1,1,0,0,0,46,29ZM45,49H25V31H45Z"/><rect width="2" height="4" x="42.016" y="15.922" fill="#231f20" transform="rotate(-25.001 43.015 17.922)"/><rect width="2" height="4" x="44.129" y="20.453" fill="#231f20" transform="rotate(-24.988 45.13 22.454)"/></g></svg>